REM DIRINDEX 1\2,1\3,1\4,1\5
REM DIRNAME folder01,folder02,folder03,folder04,folder05
TITLE ""
FILE "CD1Track04.mp3" MP3
  TRACK 01 AUDIO
    TITLE "5:cjc155_0231"
    INDEX 01 00:00:00
  TRACK 02 AUDIO
    TITLE "0:"
    INDEX 01 00:01:32
  TRACK 03 AUDIO
    TITLE "2:cjc155_0232"
    INDEX 01 00:02:43
  TRACK 04 AUDIO
    TITLE "3:cjc155_0233"
    INDEX 01 00:04:15
  TRACK 05 AUDIO
    TITLE "2:cjc155_0234"
    INDEX 01 00:05:71
  TRACK 06 AUDIO
    TITLE "3:cjc155_0235"
    INDEX 01 00:07:70
  TRACK 07 AUDIO
    TITLE "2:cjc155_0236"
    INDEX 01 00:10:06
  TRACK 08 AUDIO
    TITLE "3:cjc155_0237"
    INDEX 01 00:11:50
  TRACK 09 AUDIO
    TITLE "2:cjc155_0238"
    INDEX 01 00:13:30
  TRACK 10 AUDIO
    TITLE "3:cjc155_0239"
    INDEX 01 00:15:09
  TRACK 11 AUDIO
    TITLE "2:cjc155_0240"
    INDEX 01 00:17:00
  TRACK 12 AUDIO
    TITLE "3:cjc155_0241"
    INDEX 01 00:18:72
  TRACK 13 AUDIO
    TITLE "2:cjc155_0242"
    INDEX 01 00:20:71
  TRACK 14 AUDIO
    TITLE "3:cjc155_0243"
    INDEX 01 00:23:46
  TRACK 15 AUDIO
    TITLE "2:cjc155_0244"
    INDEX 01 00:26:28
  TRACK 16 AUDIO
    TITLE "3:cjc155_0245"
    INDEX 01 00:27:67
  TRACK 17 AUDIO
    TITLE "2:cjc155_0246"
    INDEX 01 00:29:33
  TRACK 18 AUDIO
    TITLE "3:cjc155_0247"
    INDEX 01 00:31:00
  TRACK 19 AUDIO
    TITLE "2:cjc155_0248"
    INDEX 01 00:32:58
  TRACK 20 AUDIO
    TITLE "3:cjc155_0249"
    INDEX 01 00:34:61
  TRACK 21 AUDIO
    TITLE "2:cjc155_0250"
    INDEX 01 00:36:66
  TRACK 22 AUDIO
    TITLE "3:cjc155_0251"
    INDEX 01 00:38:08
  TRACK 23 AUDIO
    TITLE "2:cjc155_0252"
    INDEX 01 00:39:21
  TRACK 24 AUDIO
    TITLE "3:cjc155_0253"
    INDEX 01 00:41:22
  TRACK 25 AUDIO
    TITLE "2:cjc155_0254"
    INDEX 01 00:43:23
  TRACK 26 AUDIO
    TITLE "3:cjc155_0255"
    INDEX 01 00:44:50
  TRACK 27 AUDIO
    TITLE "2:cjc155_0256"
    INDEX 01 00:46:00
  TRACK 28 AUDIO
    TITLE "3:cjc155_0257"
    INDEX 01 00:47:42
  TRACK 29 AUDIO
    TITLE "2:cjc155_0258"
    INDEX 01 00:49:12
  TRACK 30 AUDIO
    TITLE "3:cjc155_0259"
    INDEX 01 00:50:42
  TRACK 31 AUDIO
    TITLE "2:cjc155_0260"
    INDEX 01 00:52:02
  TRACK 32 AUDIO
    TITLE "3:cjc155_0261"
    INDEX 01 00:54:05
  TRACK 33 AUDIO
    TITLE "2:cjc155_0262"
    INDEX 01 00:56:10
  TRACK 34 AUDIO
    TITLE "3:cjc155_0263"
    INDEX 01 00:57:70
  TRACK 35 AUDIO
    TITLE "2:cjc155_0264"
    INDEX 01 00:59:63
  TRACK 36 AUDIO
    TITLE "3:cjc155_0265"
    INDEX 01 01:01:05
  TRACK 37 AUDIO
    TITLE "2:cjc155_0266"
    INDEX 01 01:02:28
  TRACK 38 AUDIO
    TITLE "3:cjc155_0267"
    INDEX 01 01:04:43
  TRACK 39 AUDIO
    TITLE "2:cjc155_0268"
    INDEX 01 01:06:65
  TRACK 40 AUDIO
    TITLE "3:cjc155_0269"
    INDEX 01 01:08:48
  TRACK 41 AUDIO
    TITLE "2:cjc155_0270"
    INDEX 01 01:10:31
  TRACK 42 AUDIO
    TITLE "3:cjc155_0271"
    INDEX 01 01:11:70
  TRACK 43 AUDIO
    TITLE "2:cjc155_0272"
    INDEX 01 01:13:36
  TRACK 44 AUDIO
    TITLE "3:cjc155_0273"
    INDEX 01 01:15:17
  TRACK 45 AUDIO
    TITLE "2:cjc155_0274"
    INDEX 01 01:17:02
  TRACK 46 AUDIO
    TITLE "3:cjc155_0275"
    INDEX 01 01:18:74
  TRACK 47 AUDIO
    TITLE "2:cjc155_0276"
    INDEX 01 01:21:00
  TRACK 48 AUDIO
    TITLE "3:cjc155_0277"
    INDEX 01 01:22:23
  TRACK 49 AUDIO
    TITLE "2:cjc155_0278"
    INDEX 01 01:23:52
  TRACK 50 AUDIO
    TITLE "3:cjc155_0279"
    INDEX 01 01:25:72
  TRACK 51 AUDIO
    TITLE "2:cjc155_0280"
    INDEX 01 01:28:25
  TRACK 52 AUDIO
    TITLE "3:cjc155_0281"
    INDEX 01 01:30:28
  TRACK 53 AUDIO
    TITLE "2:cjc155_0282"
    INDEX 01 01:32:39
  TRACK 54 AUDIO
    TITLE "3:cjc155_0283"
    INDEX 01 01:34:18
  TRACK 55 AUDIO
    TITLE "2:cjc155_0284"
    INDEX 01 01:36:07
  TRACK 56 AUDIO
    TITLE "3:cjc155_0285"
    INDEX 01 01:37:21
  TRACK 57 AUDIO
    TITLE "2:cjc155_0286"
    INDEX 01 01:38:45
  TRACK 58 AUDIO
    TITLE "3:cjc155_0287"
    INDEX 01 01:40:52
  TRACK 59 AUDIO
    TITLE "2:cjc155_0288"
    INDEX 01 01:42:69
  TRACK 60 AUDIO
    TITLE "3:cjc155_0289"
    INDEX 01 01:44:58
  TRACK 61 AUDIO
    TITLE "2:cjc155_0290"
    INDEX 01 01:46:57
  TRACK 62 AUDIO
    TITLE "3:cjc155_0291"
    INDEX 01 01:48:69
  TRACK 63 AUDIO
    TITLE "2:cjc155_0292"
    INDEX 01 01:51:13
  TRACK 64 AUDIO
    TITLE "3:cjc155_0293"
    INDEX 01 01:52:67
  TRACK 65 AUDIO
    TITLE "2:cjc155_0294"
    INDEX 01 01:54:48
  TRACK 66 AUDIO
    TITLE "3:cjc155_0295"
    INDEX 01 01:56:57
  TRACK 67 AUDIO
    TITLE "2:cjc155_0296"
    INDEX 01 01:59:03
  TRACK 68 AUDIO
    TITLE "3:cjc155_0297"
    INDEX 01 02:00:61
  TRACK 69 AUDIO
    TITLE "2:cjc155_0298"
    INDEX 01 02:02:54
  TRACK 70 AUDIO
    TITLE "3:cjc155_0299"
    INDEX 01 02:04:02
  TRACK 71 AUDIO
    TITLE "2:cjc155_0300"
    INDEX 01 02:05:36
  TRACK 72 AUDIO
    TITLE "3:cjc155_0301"
    INDEX 01 02:07:29
  TRACK 73 AUDIO
    TITLE "2:cjc155_0302"
    INDEX 01 02:09:34
  TRACK 74 AUDIO
    TITLE "3:cjc155_0303"
    INDEX 01 02:10:71
  TRACK 75 AUDIO
    TITLE "2:cjc155_0304"
    INDEX 01 02:12:40
  TRACK 76 AUDIO
    TITLE "3:cjc155_0305"
    INDEX 01 02:14:16
  TRACK 77 AUDIO
    TITLE "2:cjc155_0306"
    INDEX 01 02:15:72
  TRACK 78 AUDIO
    TITLE "3:cjc155_0307"
    INDEX 01 02:17:47
  TRACK 79 AUDIO
    TITLE "2:cjc155_0308"
    INDEX 01 02:19:25
  TRACK 80 AUDIO
    TITLE "3:cjc155_0309"
    INDEX 01 02:21:20
  TRACK 81 AUDIO
    TITLE "2:cjc155_0310"
    INDEX 01 02:23:28
  TRACK 82 AUDIO
    TITLE "3:cjc155_0311"
    INDEX 01 02:25:20
  TRACK 83 AUDIO
    TITLE "2:cjc155_0312"
    INDEX 01 02:27:24
  TRACK 84 AUDIO
    TITLE "3:cjc155_0313"
    INDEX 01 02:29:15
  TRACK 85 AUDIO
    TITLE "2:cjc155_0314"
    INDEX 01 02:31:14
  TRACK 86 AUDIO
    TITLE "3:cjc155_0315"
    INDEX 01 02:32:35
  TRACK 87 AUDIO
    TITLE "2:cjc155_0316"
    INDEX 01 02:33:68
  TRACK 88 AUDIO
    TITLE "3:cjc155_0317"
    INDEX 01 02:36:12
  TRACK 89 AUDIO
    TITLE "2:cjc155_0318"
    INDEX 01 02:38:40
  TRACK 90 AUDIO
    TITLE "3:cjc155_0319"
    INDEX 01 02:40:17
  TRACK 91 AUDIO
    TITLE "2:cjc155_0320"
    INDEX 01 02:42:06
  TRACK 92 AUDIO
    TITLE "3:cjc155_0321"
    INDEX 01 02:43:74
  TRACK 93 AUDIO
    TITLE "2:cjc155_0322"
    INDEX 01 02:46:06
  TRACK 94 AUDIO
    TITLE "3:cjc155_0323"
    INDEX 01 02:48:72
  TRACK 95 AUDIO
    TITLE "2:cjc155_0324"
    INDEX 01 02:51:70
  TRACK 96 AUDIO
    TITLE "3:cjc155_0325"
    INDEX 01 02:54:31
  TRACK 97 AUDIO
    TITLE "2:cjc155_0326"
    INDEX 01 02:57:02
  TRACK 98 AUDIO
    TITLE "3:cjc155_0327"
    INDEX 01 02:58:52
  TRACK 99 AUDIO
    TITLE "2:cjc155_0328"
    INDEX 01 03:00:41
  TRACK 100 AUDIO
    TITLE "3:cjc155_0329"
    INDEX 01 03:02:01
  TRACK 101 AUDIO
    TITLE "2:cjc155_0330"
    INDEX 01 03:03:44
  TRACK 102 AUDIO
    TITLE "3:cjc155_0331"
    INDEX 01 03:04:45
  TRACK 103 AUDIO
    TITLE "2:cjc155_0332"
    INDEX 01 03:05:56
  TRACK 104 AUDIO
    TITLE "3:cjc155_0333"
    INDEX 01 03:07:39
  TRACK 105 AUDIO
    TITLE "2:cjc155_0334"
    INDEX 01 03:09:36
  TRACK 106 AUDIO
    TITLE "3:cjc155_0335"
    INDEX 01 03:11:73
  TRACK 107 AUDIO
    TITLE "2:cjc155_0336"
    INDEX 01 03:14:42
  TRACK 108 AUDIO
    TITLE "3:cjc155_0337"
    INDEX 01 03:16:11
  TRACK 109 AUDIO
    TITLE "2:cjc155_0338"
    INDEX 01 03:17:63
  TRACK 110 AUDIO
    TITLE "3:cjc155_0339"
    INDEX 01 03:19:27
  TRACK 111 AUDIO
    TITLE "2:cjc155_0340"
    INDEX 01 03:21:04
  TRACK 112 AUDIO
    TITLE "3:cjc155_0341"
    INDEX 01 03:22:63
  TRACK 113 AUDIO
    TITLE "2:cjc155_0342"
    INDEX 01 03:24:60
  TRACK 114 AUDIO
    TITLE "3:cjc155_0343"
    INDEX 01 03:26:17
  TRACK 115 AUDIO
    TITLE "2:cjc155_0344"
    INDEX 01 03:27:56
  TRACK 116 AUDIO
    TITLE "3:cjc155_0345"
    INDEX 01 03:29:43
  TRACK 117 AUDIO
    TITLE "2:cjc155_0346"
    INDEX 01 03:31:42
  TRACK 118 AUDIO
    TITLE "3:cjc155_0347"
    INDEX 01 03:33:39
  TRACK 119 AUDIO
    TITLE "2:cjc155_0348"
    INDEX 01 03:35:48
  TRACK 120 AUDIO
    TITLE "3:cjc155_0349"
    INDEX 01 03:37:56
  TRACK 121 AUDIO
    TITLE "2:cjc155_0350"
    INDEX 01 03:39:69
  TRACK 122 AUDIO
    TITLE "3:cjc155_0351"
    INDEX 01 03:42:08
  TRACK 123 AUDIO
    TITLE "2:cjc155_0352"
    INDEX 01 03:44:21
  TRACK 124 AUDIO
    TITLE "3:cjc155_0353"
    INDEX 01 03:46:10
  TRACK 125 AUDIO
    TITLE "2:cjc155_0354"
    INDEX 01 03:48:09
  TRACK 126 AUDIO
    TITLE "3:cjc155_0355"
    INDEX 01 03:49:26
  TRACK 127 AUDIO
    TITLE "2:cjc155_0356"
    INDEX 01 03:50:51
  TRACK 128 AUDIO
    TITLE "3:cjc155_0357"
    INDEX 01 03:52:72
  TRACK 129 AUDIO
    TITLE "2:cjc155_0358"
    INDEX 01 03:55:21
  TRACK 130 AUDIO
    TITLE "3:cjc155_0359"
    INDEX 01 03:57:73
  TRACK 131 AUDIO
    TITLE "2:cjc155_0360"
    INDEX 01 04:00:61
  TRACK 132 AUDIO
    TITLE "3:cjc155_0361"
    INDEX 01 04:02:07
  TRACK 133 AUDIO
    TITLE "2:cjc155_0362"
    INDEX 01 04:03:34
  TRACK 134 AUDIO
    TITLE "3:cjc155_0363"
    INDEX 01 04:04:51
  TRACK 135 AUDIO
    TITLE "2:cjc155_0364"
    INDEX 01 04:06:01
  TRACK 136 AUDIO
    TITLE "3:cjc155_0365"
    INDEX 01 04:07:69
  TRACK 137 AUDIO
    TITLE "2:cjc155_0366"
    INDEX 01 04:09:70
  TRACK 138 AUDIO
    TITLE "3:cjc155_0367"
    INDEX 01 04:11:63
  TRACK 139 AUDIO
    TITLE "2:cjc155_0368"
    INDEX 01 04:13:66
  TRACK 140 AUDIO
    TITLE "3:cjc155_0369"
    INDEX 01 04:15:06
  TRACK 141 AUDIO
    TITLE "2:cjc155_0370"
    INDEX 01 04:16:31
  TRACK 142 AUDIO
    TITLE "3:cjc155_0371"
    INDEX 01 04:17:56
  TRACK 143 AUDIO
    TITLE "2:cjc155_0372"
    INDEX 01 04:19:17
  TRACK 144 AUDIO
    TITLE "3:cjc155_0373"
    INDEX 01 04:20:60
  TRACK 145 AUDIO
    TITLE "2:cjc155_0374"
    INDEX 01 04:22:33
  TRACK 146 AUDIO
    TITLE "3:cjc155_0375"
    INDEX 01 04:24:70
  TRACK 147 AUDIO
    TITLE "2:cjc155_0376"
    INDEX 01 04:27:39
  TRACK 148 AUDIO
    TITLE "3:cjc155_0377"
    INDEX 01 04:30:25
  TRACK 149 AUDIO
    TITLE "2:cjc155_0378"
    INDEX 01 04:33:23
  TRACK 150 AUDIO
    TITLE "3:cjc155_0379"
    INDEX 01 04:34:48
  TRACK 151 AUDIO
    TITLE "2:cjc155_0380"
    INDEX 01 04:36:02
  TRACK 152 AUDIO
    TITLE "3:cjc155_0381"
    INDEX 01 04:39:03
  TRACK 153 AUDIO
    TITLE "2:cjc155_0382"
    INDEX 01 04:42:11
  TRACK 154 AUDIO
    TITLE "3:cjc155_0383"
    INDEX 01 04:43:36
  TRACK 155 AUDIO
    TITLE "2:cjc155_0384"
    INDEX 01 04:44:62
  TRACK 156 AUDIO
    TITLE "3:cjc155_0385"
    INDEX 01 04:46:50
  TRACK 157 AUDIO
    TITLE "2:cjc155_0386"
    INDEX 01 04:48:37
  TRACK 158 AUDIO
    TITLE "3:cjc155_0387"
    INDEX 01 04:50:45
  TRACK 159 AUDIO
    TITLE "2:cjc155_0388"
    INDEX 01 04:52:58
  TRACK 160 AUDIO
    TITLE "3:cjc155_0389"
    INDEX 01 04:54:06
  TRACK 161 AUDIO
    TITLE "2:cjc155_0390"
    INDEX 01 04:55:37
  TRACK 162 AUDIO
    TITLE "3:cjc155_0391"
    INDEX 01 04:57:67
  TRACK 163 AUDIO
    TITLE "2:cjc155_0392"
    INDEX 01 05:00:30
  TRACK 164 AUDIO
    TITLE "3:cjc155_0393"
    INDEX 01 05:02:06
  TRACK 165 AUDIO
    TITLE "2:cjc155_0394"
    INDEX 01 05:03:52
  TRACK 166 AUDIO
    TITLE "3:cjc155_0395"
    INDEX 01 05:05:47
  TRACK 167 AUDIO
    TITLE "2:cjc155_0396"
    INDEX 01 05:07:56
  TRACK 168 AUDIO
    TITLE "3:cjc155_0397"
    INDEX 01 05:09:33
  TRACK 169 AUDIO
    TITLE "2:cjc155_0398"
    INDEX 01 05:11:18
  TRACK 170 AUDIO
    TITLE "3:cjc155_0399"
    INDEX 01 05:13:58
  TRACK 171 AUDIO
    TITLE "2:cjc155_0400"
    INDEX 01 05:16:39
  TRACK 172 AUDIO
    TITLE "3:cjc155_0401"
    INDEX 01 05:19:29
  TRACK 173 AUDIO
    TITLE "2:cjc155_0402"
    INDEX 01 05:22:30
  TRACK 174 AUDIO
    TITLE "3:cjc155_0403"
    INDEX 01 05:23:64
  TRACK 175 AUDIO
    TITLE "2:cjc155_0404"
    INDEX 01 05:25:38
  TRACK 176 AUDIO
    TITLE "3:cjc155_0405"
    INDEX 01 05:27:66
  TRACK 177 AUDIO
    TITLE "2:cjc155_0406"
    INDEX 01 05:30:29
  TRACK 178 AUDIO
    TITLE "3:cjc155_0407"
    INDEX 01 05:32:14
  TRACK 179 AUDIO
    TITLE "2:cjc155_0408"
    INDEX 01 05:34:13
  TRACK 180 AUDIO
    TITLE "3:cjc155_0409"
    INDEX 01 05:36:16
  TRACK 181 AUDIO
    TITLE "2:cjc155_0410"
    INDEX 01 05:38:29
  TRACK 182 AUDIO
    TITLE "3:cjc155_0411"
    INDEX 01 05:39:58
  TRACK 183 AUDIO
    TITLE "2:cjc155_0412"
    INDEX 01 05:41:15
  TRACK 184 AUDIO
    TITLE "3:cjc155_0413"
    INDEX 01 05:42:52
  TRACK 185 AUDIO
    TITLE "2:cjc155_0414"
    INDEX 01 05:44:22
  TRACK 186 AUDIO
    TITLE "3:cjc155_0415"
    INDEX 01 05:46:17
  TRACK 187 AUDIO
    TITLE "2:cjc155_0416"
    INDEX 01 05:48:12
  TRACK 188 AUDIO
    TITLE "3:cjc155_0417"
    INDEX 01 05:49:60
  TRACK 189 AUDIO
    TITLE "2:cjc155_0418"
    INDEX 01 05:51:49
  TRACK 190 AUDIO
    TITLE "3:cjc155_0419"
    INDEX 01 05:52:68
  TRACK 191 AUDIO
    TITLE "2:cjc155_0420"
    INDEX 01 05:54:38
  TRACK 192 AUDIO
    TITLE "3:cjc155_0421"
    INDEX 01 05:56:68
  TRACK 193 AUDIO
    TITLE "2:cjc155_0422"
    INDEX 01 05:59:39
  TRACK 194 AUDIO
    TITLE "3:cjc155_0423"
    INDEX 01 06:01:16
  TRACK 195 AUDIO
    TITLE "2:cjc155_0424"
    INDEX 01 06:03:05
  TRACK 196 AUDIO
    TITLE "3:cjc155_0425"
    INDEX 01 06:04:65
  TRACK 197 AUDIO
    TITLE "2:cjc155_0426"
    INDEX 01 06:06:60
  TRACK 198 AUDIO
    TITLE "3:cjc155_0427"
    INDEX 01 06:08:06
  TRACK 199 AUDIO
    TITLE "2:cjc155_0428"
    INDEX 01 06:09:33
  TRACK 200 AUDIO
    TITLE "3:cjc155_0429"
    INDEX 01 06:11:62
  TRACK 201 AUDIO
    TITLE "2:cjc155_0430"
    INDEX 01 06:14:27
  TRACK 202 AUDIO
    TITLE "3:cjc155_0431"
    INDEX 01 06:15:65
  TRACK 203 AUDIO
    TITLE "2:cjc155_0432"
    INDEX 01 06:17:37
  TRACK 204 AUDIO
    TITLE "3:cjc155_0433"
    INDEX 01 06:19:14
  TRACK 205 AUDIO
    TITLE "2:cjc155_0434"
    INDEX 01 06:20:74
  TRACK 206 AUDIO
    TITLE "3:cjc155_0435"
    INDEX 01 06:22:71
  TRACK 207 AUDIO
    TITLE "2:cjc155_0436"
    INDEX 01 06:24:74
  TRACK 208 AUDIO
    TITLE "3:cjc155_0437"
    INDEX 01 06:26:28
  TRACK 209 AUDIO
    TITLE "2:cjc155_0438"
    INDEX 01 06:27:68
  TRACK 210 AUDIO
    TITLE "3:cjc155_0439"
    INDEX 01 06:30:43
  TRACK 211 AUDIO
    TITLE "0:"
    INDEX 01 06:33:28
